<?xml version="1.0" standalone="no"?>
<!DOCTYPE svg PUBLIC "-//W3C//DTD SVG 20010904//EN"
 "http://www.w3.org/TR/2001/REC-SVG-20010904/DTD/svg10.dtd">
<svg version="1.0" xmlns="http://www.w3.org/2000/svg"
 width="1024.000000pt" height="290.000000pt" viewBox="0 0 1024.000000 290.000000"
 preserveAspectRatio="xMidYMid meet">

<g transform="translate(0.000000,290.000000) scale(0.100000,-0.100000)"
fill="#000000" stroke="none">
<path d="M2440 2228 c-2 -576 -2 -1017 -1 -1266 l1 -293 138 3 137 3 0 840 0
840 -137 3 -138 3 0 -133z"/>
<path d="M4004 2346 c-3 -7 -3 -61 -2 -122 l3 -109 129 -3 c97 -2 131 1 138
10 13 22 10 216 -4 225 -23 14 -259 13 -264 -1z"/>
<path d="M6136 2353 c-3 -3 -6 -55 -6 -113 0 -80 4 -111 14 -119 9 -8 55 -11
137 -9 l124 3 0 120 0 120 -131 2 c-72 1 -134 0 -138 -4z"/>
<path d="M8088 2188 l-3 -173 -215 -5 -215 -5 190 -7 c105 -5 473 -8 818 -8
499 0 628 3 625 13 -4 9 -107 13 -461 15 l-457 2 0 170 0 170 -140 0 -140 0
-2 -172z"/>
<path d="M1010 2236 c-173 -32 -313 -157 -356 -320 -22 -83 -18 -212 10 -295
42 -124 115 -204 243 -264 l68 -31 420 -6 420 -5 37 -25 c54 -36 81 -91 81
-160 -1 -60 -12 -90 -47 -128 -47 -53 -33 -52 -642 -53 -311 0 -573 -3 -580
-6 -11 -4 -14 -34 -14 -139 l0 -134 580 0 c471 0 589 3 634 14 222 58 346 216
347 442 1 220 -98 366 -303 446 -50 20 -77 21 -443 25 -214 2 -404 6 -422 9
-41 6 -92 48 -109 91 -8 18 -14 59 -14 91 0 75 35 133 97 162 41 19 63 20 548
20 l506 0 -3 138 -3 137 -495 1 c-346 1 -515 -2 -560 -10z"/>
<path d="M8086 1945 c-5 -13 -43 -15 -262 -15 -142 0 -255 -3 -252 -6 3 -3
120 -8 260 -12 l253 -7 3 -27 c2 -19 -2 -27 -15 -30 -10 -2 -260 -2 -555 0
-572 5 -547 7 -655 -45 -93 -45 -161 -143 -189 -272 -19 -92 -19 -461 1 -555
32 -150 130 -250 288 -292 41 -11 213 -15 855 -21 744 -6 802 -5 802 10 0 15
-15 17 -125 17 l-125 0 0 25 0 25 311 0 312 0 38 -35 39 -35 195 0 c107 0 195
4 195 8 0 9 -318 317 -364 353 -22 17 -43 19 -220 19 -124 0 -196 -4 -196 -10
0 -6 -58 -10 -155 -10 -97 0 -155 4 -155 10 0 6 -53 10 -140 10 -87 0 -140 -4
-140 -10 0 -6 -50 -11 -127 -11 -187 -2 -449 -15 -347 -17 44 -1 169 -5 277
-9 l197 -6 0 -28 c0 -38 -20 -41 -249 -34 -108 4 -335 7 -506 8 -286 2 -312 3
-338 21 -51 34 -57 68 -57 297 0 219 8 271 48 295 11 8 194 12 557 15 l540 4
3 -32 3 -33 -255 0 c-142 0 -256 -4 -256 -9 0 -13 544 -23 1123 -19 336 2 517
7 517 13 0 6 -39 12 -87 15 l-88 5 55 44 c30 24 57 47 58 52 4 9 -120 8 -610
-5 -100 -3 -170 -1 -173 5 -8 13 -278 12 -291 -1 -7 -7 -56 -10 -125 -8 l-114
3 -3 28 -3 27 694 0 694 0 83 68 c45 37 97 77 116 90 19 12 34 25 34 28 0 2
-235 4 -522 4 -288 0 -533 -1 -545 0 -19 0 -23 6 -23 30 l0 30 70 0 c56 0 70
3 70 15 0 12 -14 15 -70 15 -40 0 -70 4 -70 10 0 6 -53 10 -139 10 -114 0
-140 -3 -145 -15z m-1 -155 l0 -25 -122 -3 -123 -3 0 31 0 31 123 -3 122 -3 0
-25z m875 21 c0 -10 -114 -103 -145 -118 -29 -14 -445 -18 -445 -4 0 14 -276
15 -285 1 -4 -6 -57 -10 -126 -10 -73 0 -119 4 -119 10 0 6 -81 10 -222 11
-123 0 -232 4 -243 9 -19 8 -18 9 5 11 14 1 261 5 549 8 406 5 525 9 529 19 2
8 -10 12 -42 12 -44 0 -46 1 -46 30 l0 30 295 0 c171 0 295 -4 295 -9z m-305
-240 c3 -5 -10 -21 -28 -35 -32 -24 -41 -26 -145 -26 l-112 0 0 28 c0 16 3 32
7 35 10 11 271 8 278 -2z m99 -600 l27 -28 -193 -5 c-106 -3 -199 -3 -205 0
-7 2 -13 17 -13 33 l0 29 178 0 178 0 28 -29z m364 -78 c-3 -15 -17 -16 -119
-14 -65 1 -119 -2 -123 -7 -3 -5 13 -26 34 -47 22 -22 40 -43 40 -47 0 -4
-131 -8 -291 -8 l-290 0 3 28 c3 26 6 27 61 30 72 4 75 22 3 22 -35 0 -58 5
-66 15 -10 12 -39 15 -140 15 -101 0 -130 -3 -140 -15 -10 -12 -38 -15 -131
-15 l-119 0 0 30 0 30 641 0 c594 0 640 -1 637 -17z m-1033 -93 l0 -25 -122
-3 -123 -3 0 31 0 31 123 -3 122 -3 0 -25z m0 -85 c0 -19 -8 -20 -122 -23
l-123 -3 0 26 0 26 123 -3 c114 -3 122 -4 122 -23z"/>
<path d="M3135 1665 c-327 -263 -326 -262 -332 -312 -9 -70 3 -93 100 -187 51
-49 187 -180 303 -292 l211 -204 199 0 199 1 -156 152 c-86 84 -236 229 -334
322 l-178 171 314 253 c173 140 321 260 329 267 12 12 -20 14 -206 14 l-219 0
-230 -185z"/>
<path d="M4000 1260 l0 -590 140 0 140 0 0 590 0 590 -140 0 -140 0 0 -590z"/>
<path d="M4807 1827 c-86 -31 -165 -99 -205 -177 -18 -36 -37 -92 -42 -125
-12 -73 -13 -1205 -2 -1223 7 -9 41 -12 138 -10 l129 3 5 606 c5 642 4 618 50
656 11 9 99 12 337 13 l321 0 26 -31 26 -31 0 -239 c0 -252 -5 -285 -47 -305
-10 -5 -144 -11 -298 -14 l-280 -5 -3 -137 -3 -138 282 0 c177 0 297 4 323 11
163 45 268 150 296 298 13 69 13 492 0 560 -5 28 -22 77 -37 108 -46 93 -105
143 -226 192 -19 7 -140 11 -380 10 -330 -1 -356 -3 -410 -22z"/>
<path d="M6130 1260 l0 -591 138 3 137 3 3 588 2 587 -140 0 -140 0 0 -590z"/>
<path d="M8086 1435 c-4 -13 -39 -15 -222 -15 -120 0 -214 -3 -210 -7 4 -5
103 -10 219 -13 l212 -5 0 -40 0 -40 -290 -5 c-203 -3 -284 -8 -270 -15 27
-14 1375 -14 1375 0 0 6 -20 11 -45 13 -25 2 -45 7 -45 12 0 6 21 26 48 45 34
26 57 35 82 34 95 -3 170 2 170 11 0 6 -32 10 -75 10 -58 0 -77 4 -81 15 -5
13 -39 15 -219 15 -177 0 -215 -3 -225 -15 -9 -10 -32 -15 -76 -15 -50 0 -64
3 -64 15 0 13 -22 15 -139 15 -114 0 -140 -3 -145 -15z m366 -75 c-5 -47 -8
-50 -48 -50 -33 0 -34 1 -34 38 0 48 6 54 50 50 34 -3 35 -4 32 -38z"/>
<path d="M8086 1235 c-5 -13 -48 -15 -307 -15 -166 0 -299 -3 -295 -7 4 -4
141 -10 304 -13 l297 -5 3 -34 c2 -20 -2 -37 -10 -42 -7 -5 -134 -9 -283 -10
-168 -1 -255 -4 -230 -9 50 -11 1361 -24 1427 -15 l48 7 -50 45 c-27 25 -50
49 -50 54 0 5 20 9 45 9 34 0 45 4 45 16 0 13 -10 14 -68 9 -56 -6 -70 -4 -81
9 -12 14 -41 16 -207 16 -150 0 -193 -3 -191 -12 4 -21 -104 -23 -115 -4 -13
23 -273 24 -282 1z m472 -69 c20 -19 35 -36 32 -39 -3 -2 -51 -7 -107 -10 -94
-6 -104 -5 -113 13 -7 12 -7 27 0 44 9 25 14 26 80 26 66 0 73 -2 108 -34z"/>
</g>
</svg>
